{"asset":{"version":"2.0","generator":"smart-staircase-digital-twin-exporter"},"scene":0,"scenes":[{"nodes":[0]}],"nodes":[{"mesh":0,"name":"SmartStaircase"}],"meshes":[{"primitives":[{"attributes":{"POSITION":0,"NORMAL":1},"material":0,"mode":4},{"attributes":{"POSITION":2,"NORMAL":3},"material":1,"mode":4},{"attributes":{"POSITION":4,"NORMAL":5},"material":2,"mode":4},{"attributes":{"POSITION":6,"NORMAL":7},"material":3,"mode":4},{"attributes":{"POSITION":8,"NORMAL":9},"material":4,"mode":4},{"attributes":{"POSITION":10,"NORMAL":11},"material":5,"mode":4},{"attributes":{"POSITION":12,"NORMAL":13},"material":6,"mode":4},{"attributes":{"POSITION":14,"NORMAL":15},"material":7,"mode":4},{"attributes":{"POSITION":16,"NORMAL":17},"material":8,"mode":4},{"attributes":{"POSITION":18,"NORMAL":19},"material":9,"mode":4},{"attributes":{"POSITION":20,"NORMAL":21},"material":10,"mode":4},{"attributes":{"POSITION":22,"NORMAL":23},"material":11,"mode":4},{"attributes":{"POSITION":24,"NORMAL":25},"material":12,"mode":4},{"attributes":{"POSITION":26,"NORMAL":27},"material":13,"mode":4},{"attributes":{"POSITION":28,"NORMAL":29},"material":14,"mode":4},{"attributes":{"POSITION":30,"NORMAL":31},"material":15,"mode":4},{"attributes":{"POSITION":32,"NORMAL":33},"material":16,"mode":4},{"attributes":{"POSITION":34,"NORMAL":35},"material":17,"mode":4},{"attributes":{"POSITION":36,"NORMAL":37},"material":18,"mode":4},{"attributes":{"POSITION":38,"NORMAL":39},"material":19,"mode":4},{"attributes":{"POSITION":40,"NORMAL":41},"material":20,"mode":4}]}],"materials":[{"name":"boardEdge","pbrMetallicRoughness":{"baseColorFactor":[0.9058823529411765,0.9058823529411765,0.8862745098039215,1],"metallicFactor":0.1,"roughnessFactor":0.6}},{"name":"welcomeBase","pbrMetallicRoughness":{"baseColorFactor":[0.10196078431372549,0.10196078431372549,0.10196078431372549,1],"metallicFactor":0.1,"roughnessFactor":0.6}},{"name":"welcomeDome","pbrMetallicRoughness":{"baseColorFactor":[1,0.9529411764705882,0.8392156862745098,1],"metallicFactor":0.1,"roughnessFactor":0.6},"emissiveFactor":[1,0.85,0.54]},{"name":"board","pbrMetallicRoughness":{"baseColorFactor":[0.9529411764705882,0.9529411764705882,0.9411764705882353,1],"metallicFactor":0.1,"roughnessFactor":0.6}},{"name":"ledOff","pbrMetallicRoughness":{"baseColorFactor":[0.10196078431372549,0.10196078431372549,0.10196078431372549,1],"metallicFactor":0.1,"roughnessFactor":0.6}},{"name":"pcbBlack","pbrMetallicRoughness":{"baseColorFactor":[0.0784313725490196,0.08235294117647059,0.10196078431372549,1],"metallicFactor":0.1,"roughnessFactor":0.6}},{"name":"gold","pbrMetallicRoughness":{"baseColorFactor":[0.788235294117647,0.6,0.24705882352941178,1],"metallicFactor":0.7,"roughnessFactor":0.6}},{"name":"pcbBlue","pbrMetallicRoughness":{"baseColorFactor":[0.10980392156862745,0.30980392156862746,0.6901960784313725,1],"metallicFactor":0.1,"roughnessFactor":0.6}},{"name":"pot","pbrMetallicRoughness":{"baseColorFactor":[0.16470588235294117,0.38823529411764707,0.788235294117647,1],"metallicFactor":0.1,"roughnessFactor":0.6}},{"name":"ldr","pbrMetallicRoughness":{"baseColorFactor":[1,0.9137254901960784,0.6588235294117647,1],"metallicFactor":0.1,"roughnessFactor":0.6}},{"name":"indicatorOff","pbrMetallicRoughness":{"baseColorFactor":[0.25098039215686274,0.0392156862745098,0.0392156862745098,1],"metallicFactor":0.1,"roughnessFactor":0.6}},{"name":"laserBeam","pbrMetallicRoughness":{"baseColorFactor":[1,0.23137254901960785,0.23137254901960785,0.85],"metallicFactor":0.1,"roughnessFactor":0.6},"emissiveFactor":[0.9,0.05,0.05],"alphaMode":"BLEND"},{"name":"speakerBody","pbrMetallicRoughness":{"baseColorFactor":[0.07058823529411765,0.07058823529411765,0.07058823529411765,1],"metallicFactor":0.1,"roughnessFactor":0.6}},{"name":"speakerCone","pbrMetallicRoughness":{"baseColorFactor":[0.16862745098039217,0.16862745098039217,0.16862745098039217,1],"metallicFactor":0.1,"roughnessFactor":0.6}},{"name":"idleGlow","pbrMetallicRoughness":{"baseColorFactor":[0.12941176470588237,0.9019607843137255,0.7568627450980392,1],"metallicFactor":0.1,"roughnessFactor":0.6},"emissiveFactor":[0.13,0.9,0.76]},{"name":"servoBody","pbrMetallicRoughness":{"baseColorFactor":[0.13333333333333333,0.3333333333333333,0.6666666666666666,1],"metallicFactor":0.7,"roughnessFactor":0.6}},{"name":"horn","pbrMetallicRoughness":{"baseColorFactor":[0.9098039215686274,0.9098039215686274,0.9098039215686274,1],"metallicFactor":0.1,"roughnessFactor":0.6}},{"name":"spiderRed","pbrMetallicRoughness":{"baseColorFactor":[0.7843137254901961,0.12156862745098039,0.12156862745098039,1],"metallicFactor":0.1,"roughnessFactor":0.6}},{"name":"lensRim","pbrMetallicRoughness":{"baseColorFactor":[0.06666666666666667,0.07450980392156863,0.09411764705882353,1],"metallicFactor":0.1,"roughnessFactor":0.6}},{"name":"lens","pbrMetallicRoughness":{"baseColorFactor":[0.9568627450980393,0.9686274509803922,0.984313725490196,1],"metallicFactor":0.1,"roughnessFactor":0.6}},{"name":"spiderSuit","pbrMetallicRoughness":{"baseColorFactor":[0.10980392156862745,0.24705882352941178,0.5607843137254902,1],"metallicFactor":0.1,"roughnessFactor":0.6}}],"accessors":[{"bufferView":0,"componentType":5126,"count":72,"type":"VEC3","min":[-10,0,-13.99],"max":[10,27.54,46.14999999999999]},{"bufferView":1,"componentType":5126,"count":72,"type":"VEC3"},{"bufferView":2,"componentType":5126,"count":288,"type":"VEC3","min":[-1,0.6,-13.5],"max":[1,1.1,-11.5]},{"bufferView":3,"componentType":5126,"count":288,"type":"VEC3"},{"bufferView":4,"componentType":5126,"count":2304,"type":"VEC3","min":[-0.75,1.35,-13.25],"max":[0.75,2.1,-11.75]},{"bufferView":5,"componentType":5126,"count":2304,"type":"VEC3"},{"bufferView":6,"componentType":5126,"count":648,"type":"VEC3","min":[-10.600000000000001,0,-14],"max":[10.600000000000001,32.6,46.19999999999999]},{"bufferView":7,"componentType":5126,"count":648,"type":"VEC3"},{"bufferView":8,"componentType":5126,"count":2052,"type":"VEC3","min":[-9.8,3.4,0.935],"max":[9.8,32.800000000000004,46.199999999999996]},{"bufferView":9,"componentType":5126,"count":2052,"type":"VEC3"},{"bufferView":10,"componentType":5126,"count":108,"type":"VEC3","min":[7.2,5.025,6.6],"max":[8.8,11.275,39]},{"bufferView":11,"componentType":5126,"count":108,"type":"VEC3"},{"bufferView":12,"componentType":5126,"count":576,"type":"VEC3","min":[6.45,5.050000000000001,7.1499999999999995],"max":[7.75,11.950000000000001,38.45]},{"bufferView":13,"componentType":5126,"count":576,"type":"VEC3"},{"bufferView":14,"componentType":5126,"count":108,"type":"VEC3","min":[-8.85,5.025,6.449999999999999],"max":[-7.15,11.275,39.15]},{"bufferView":15,"componentType":5126,"count":108,"type":"VEC3"},{"bufferView":16,"componentType":5126,"count":576,"type":"VEC3","min":[-7.9,5.28,7.6],"max":[-7.3,11.58,38.6]},{"bufferView":17,"componentType":5126,"count":576,"type":"VEC3"},{"bufferView":18,"componentType":5126,"count":1800,"type":"VEC3","min":[-8.58,5.220000000000001,6.828809827066872],"max":[-8.22,11.58,37.57119017293313]},{"bufferView":19,"componentType":5126,"count":1800,"type":"VEC3"},{"bufferView":20,"componentType":5126,"count":1800,"type":"VEC3","min":[-8.66,5.2700000000000005,8.147830957392776],"max":[-8.34,11.59,38.85216904260722]},{"bufferView":21,"componentType":5126,"count":1800,"type":"VEC3"},{"bufferView":22,"componentType":5126,"count":108,"type":"VEC3","min":[-7.5,5.44,7.54],"max":[7.5,11.56,38.06]},{"bufferView":23,"componentType":5126,"count":108,"type":"VEC3"},{"bufferView":24,"componentType":5126,"count":384,"type":"VEC3","min":[-10.799999999999999,4,20.799999999999997],"max":[-9.9,8,24.799999999999997]},{"bufferView":25,"componentType":5126,"count":384,"type":"VEC3"},{"bufferView":26,"componentType":5126,"count":384,"type":"VEC3","min":[-11.025,4.4,21.199999999999996],"max":[-10.674999999999999,7.6,24.4]},{"bufferView":27,"componentType":5126,"count":384,"type":"VEC3"},{"bufferView":28,"componentType":5126,"count":36,"type":"VEC3","min":[-10,0.7,-13.85],"max":[10,1.0999999999999999,-13.450000000000001]},{"bufferView":29,"componentType":5126,"count":36,"type":"VEC3"},{"bufferView":30,"componentType":5126,"count":36,"type":"VEC3","min":[3.45,20.69,46.599999999999994],"max":[4.55,22.290000000000003,48.19999999999999]},{"bufferView":31,"componentType":5126,"count":36,"type":"VEC3"},{"bufferView":32,"componentType":5126,"count":36,"type":"VEC3","min":[3.57,22.26,47.29999999999999],"max":[3.73,22.42,48.99999999999999]},{"bufferView":33,"componentType":5126,"count":36,"type":"VEC3"},{"bufferView":34,"componentType":5126,"count":6912,"type":"VEC3","min":[-1.488,-0.043916768817906515,-7.9879999999999995],"max":[1.488,5.008,-5.0120000000000005]},{"bufferView":35,"componentType":5126,"count":6912,"type":"VEC3"},{"bufferView":36,"componentType":5126,"count":2304,"type":"VEC3","min":[-1.206587676642514,2.8401865618649946,-5.5016],"max":[1.206587676642514,4.439813438135006,-5.0024]},{"bufferView":37,"componentType":5126,"count":2304,"type":"VEC3"},{"bufferView":38,"componentType":5126,"count":2304,"type":"VEC3","min":[-1.0246873853033271,3.070901976711631,-5.354],"max":[1.0246873853033271,4.2090980232883695,-4.91]},{"bufferView":39,"componentType":5126,"count":2304,"type":"VEC3"},{"bufferView":40,"componentType":5126,"count":6480,"type":"VEC3","min":[-1.2702682638842206,0.08983651369509738,-7.316],"max":[1.2719929639813923,3.3640000000000003,-5.684]},{"bufferView":41,"componentType":5126,"count":6480,"type":"VEC3"}],"bufferViews":[{"buffer":0,"byteOffset":0,"byteLength":864},{"buffer":0,"byteOffset":864,"byteLength":864},{"buffer":0,"byteOffset":1728,"byteLength":3456},{"buffer":0,"byteOffset":5184,"byteLength":3456},{"buffer":0,"byteOffset":8640,"byteLength":27648},{"buffer":0,"byteOffset":36288,"byteLength":27648},{"buffer":0,"byteOffset":63936,"byteLength":7776},{"buffer":0,"byteOffset":71712,"byteLength":7776},{"buffer":0,"byteOffset":79488,"byteLength":24624},{"buffer":0,"byteOffset":104112,"byteLength":24624},{"buffer":0,"byteOffset":128736,"byteLength":1296},{"buffer":0,"byteOffset":130032,"byteLength":1296},{"buffer":0,"byteOffset":131328,"byteLength":6912},{"buffer":0,"byteOffset":138240,"byteLength":6912},{"buffer":0,"byteOffset":145152,"byteLength":1296},{"buffer":0,"byteOffset":146448,"byteLength":1296},{"buffer":0,"byteOffset":147744,"byteLength":6912},{"buffer":0,"byteOffset":154656,"byteLength":6912},{"buffer":0,"byteOffset":161568,"byteLength":21600},{"buffer":0,"byteOffset":183168,"byteLength":21600},{"buffer":0,"byteOffset":204768,"byteLength":21600},{"buffer":0,"byteOffset":226368,"byteLength":21600},{"buffer":0,"byteOffset":247968,"byteLength":1296},{"buffer":0,"byteOffset":249264,"byteLength":1296},{"buffer":0,"byteOffset":250560,"byteLength":4608},{"buffer":0,"byteOffset":255168,"byteLength":4608},{"buffer":0,"byteOffset":259776,"byteLength":4608},{"buffer":0,"byteOffset":264384,"byteLength":4608},{"buffer":0,"byteOffset":268992,"byteLength":432},{"buffer":0,"byteOffset":269424,"byteLength":432},{"buffer":0,"byteOffset":269856,"byteLength":432},{"buffer":0,"byteOffset":270288,"byteLength":432},{"buffer":0,"byteOffset":270720,"byteLength":432},{"buffer":0,"byteOffset":271152,"byteLength":432},{"buffer":0,"byteOffset":271584,"byteLength":82944},{"buffer":0,"byteOffset":354528,"byteLength":82944},{"buffer":0,"byteOffset":437472,"byteLength":27648},{"buffer":0,"byteOffset":465120,"byteLength":27648},{"buffer":0,"byteOffset":492768,"byteLength":27648},{"buffer":0,"byteOffset":520416,"byteLength":27648},{"buffer":0,"byteOffset":548064,"byteLength":77760},{"buffer":0,"byteOffset":625824,"byteLength":77760}],"buffers":[{"byteLength":703584,"uri":"data:application/octet-stream;base64,"}]}